fd_10_states
version=1
nRows=19
nColumns=17
inDegrees=yes

# SIMM Motion File Header:
name fd_10_states
datacolumns 17
datarows 19
otherdata 1
range 0.030000 0.049907
endheader
time	/jointset/r_shoulder/r_shoulder_elev/value	/jointset/r_shoulder/r_shoulder_elev/speed	/jointset/r_elbow/r_elbow_flex/value	/jointset/r_elbow/r_elbow_flex/speed	/forceset/TRIlong/activation	/forceset/TRIlong/fiber_length	/forceset/TRIlat/activation	/forceset/TRIlat/fiber_length	/forceset/TRImed/activation	/forceset/TRImed/fiber_length	/forceset/BIClong/activation	/forceset/BIClong/fiber_length	/forceset/BICshort/activation	/forceset/BICshort/fiber_length	/forceset/BRA/activation	/forceset/BRA/fiber_length
      0.030000	      0.000000	      0.000000	     10.000004	     -0.308194	      0.020000	      0.140339	      0.036801	      0.073973	      0.034452	      0.069056	      0.071868	      0.145949	      0.022000	      0.145693	      0.020000	      0.090916
      0.030061	     -0.000000	     -0.000747	      9.999986	     -0.285918	      0.020006	      0.140339	      0.036787	      0.073973	      0.034440	      0.069056	      0.071821	      0.145949	      0.022648	      0.145693	      0.020455	      0.090916
      0.030123	     -0.000000	     -0.001505	      9.999969	     -0.263611	      0.020006	      0.140339	      0.036772	      0.073973	      0.034428	      0.069056	      0.071775	      0.145949	      0.023500	      0.145693	      0.020735	      0.090916
      0.030429	     -0.000001	     -0.005729	      9.999906	     -0.150841	      0.020006	      0.140339	      0.036701	      0.073973	      0.034367	      0.069056	      0.071546	      0.145950	      0.027591	      0.145689	      0.022083	      0.090915
      0.031962	     -0.000042	     -0.058396	     10.000152	      0.505590	      0.020006	      0.140339	      0.036350	      0.073974	      0.034066	      0.069057	      0.070415	      0.145953	      0.044447	      0.145626	      0.027725	      0.090900
      0.034463	     -0.000484	     -0.341699	     10.003315	      2.159113	      0.020006	      0.140339	      0.035793	      0.073976	      0.033590	      0.069059	      0.068632	      0.145960	      0.062953	      0.145467	      0.034002	      0.090866
      0.036964	     -0.001986	     -0.904172	     10.011648	      4.636743	      0.020006	      0.140339	      0.035256	      0.073979	      0.033131	      0.069062	      0.066922	      0.145969	      0.074633	      0.145309	      0.037932	      0.090835
      0.038159	     -0.003276	     -1.262556	     10.018038	      6.084563	      0.020006	      0.140339	      0.035006	      0.073981	      0.032917	      0.069064	      0.066131	      0.145973	      0.078652	      0.145241	      0.039261	      0.090823
      0.039350	     -0.005017	     -1.669387	     10.026217	      7.673322	      0.020006	      0.140340	      0.034761	      0.073984	      0.032707	      0.069066	      0.065357	      0.145978	      0.081925	      0.145179	      0.040327	      0.090812
      0.039933	     -0.006052	     -1.884540	     10.030927	      8.497808	      0.020006	      0.140340	      0.034643	      0.073985	      0.032606	      0.069068	      0.064984	      0.145980	      0.083304	      0.145150	      0.040771	      0.090807
      0.040055	     -0.006284	     -1.930747	     10.031973	      8.673755	      0.020006	      0.140340	      0.034619	      0.073986	      0.032585	      0.069068	      0.064914	      0.145980	      0.083527	      0.145144	      0.041008	      0.090806
      0.040177	     -0.006522	     -1.977377	     10.033040	      8.850936	      0.020006	      0.140341	      0.034594	      0.073986	      0.032564	      0.069068	      0.064894	      0.145981	      0.083483	      0.145139	      0.042224	      0.090805
      0.040298	     -0.006766	     -2.024476	     10.034130	      9.029482	      0.020006	      0.140341	      0.034570	      0.073986	      0.032543	      0.069069	      0.064877	      0.145981	      0.083437	      0.145133	      0.043458	      0.090804
      0.040908	     -0.008073	     -2.268628	     10.039906	      9.947383	      0.020005	      0.140341	      0.034448	      0.073988	      0.032439	      0.069070	      0.064792	      0.145984	      0.083206	      0.145106	      0.049195	      0.090795
      0.042746	     -0.012999	     -3.124478	     10.060966	     13.062407	      0.020005	      0.140343	      0.034086	      0.073994	      0.032129	      0.069076	      0.064539	      0.145990	      0.082525	      0.145040	      0.062906	      0.090756
      0.044956	     -0.021297	     -4.434007	     10.094714	     17.617807	      0.020005	      0.140346	      0.033664	      0.074004	      0.031767	      0.069086	      0.064244	      0.145996	      0.081732	      0.144979	      0.074291	      0.090704
      0.047740	     -0.036405	     -6.486574	     10.153093	     24.512112	      0.020005	      0.140352	      0.033151	      0.074020	      0.031328	      0.069101	      0.063887	      0.146001	      0.080773	      0.144924	      0.083611	      0.090646
      0.049464	     -0.048818	     -7.931475	     10.199413	     29.275200	      0.020005	      0.140357	      0.032843	      0.074033	      0.031064	      0.069114	      0.063673	      0.146003	      0.080201	      0.144897	      0.087548	      0.090615
      0.049907	     -0.052419	     -8.318983	     10.212671	     30.544697	      0.020005	      0.140358	      0.032765	      0.074036	      0.030997	      0.069118	      0.063619	      0.146004	      0.080057	      0.144891	      0.088393	      0.090608
